name C:/MyDriveSym/Projects/mobilecap/Data\Session20210819_0002\mocap\ForceDataProcessed\walkingTS2_forces.mot
datacolumns 19
datarows 19
range 0.70450000 0.71350000
endheader 
time	R_ground_force_vx	R_ground_force_vy	R_ground_force_vz	R_ground_force_px	R_ground_force_py	R_ground_force_pz	R_ground_torque_x	R_ground_torque_y	R_ground_torque_z	L_ground_force_vx	L_ground_force_vy	L_ground_force_vz	L_ground_force_px	L_ground_force_py	L_ground_force_pz	L_ground_torque_x	L_ground_torque_y	L_ground_torque_z	
          0.70450000	         56.49346000	        219.94134500	         -3.36821800	          0.32127100	          0.00600000	         -0.16484700	          0.00000000	         -0.61927000	          0.00000000	        -64.23795300	        486.77233100	         -0.35995000	          0.83526400	          0.00600000	         -0.28234800	          0.00000000	         -0.19543300	          0.00000000	
          0.70500000	         56.07965000	        217.83852900	         -3.31281300	          0.32144100	          0.00600000	         -0.16483400	          0.00000000	         -0.61138200	          0.00000000	        -64.44626700	        488.32873600	         -0.19585000	          0.83549800	          0.00600000	         -0.28241100	          0.00000000	         -0.20120300	          0.00000000	
          0.70550000	         55.66506000	        215.74228600	         -3.25794800	          0.32161100	          0.00600000	         -0.16482100	          0.00000000	         -0.60353000	          0.00000000	        -64.65277500	        489.87848300	         -0.03191900	          0.83573300	          0.00600000	         -0.28247500	          0.00000000	         -0.20698700	          0.00000000	
          0.70600000	         55.24973500	        213.65272700	         -3.20362300	          0.32178200	          0.00600000	         -0.16480800	          0.00000000	         -0.59571500	          0.00000000	        -64.85747100	        491.42155300	          0.13182400	          0.83596700	          0.00600000	         -0.28253800	          0.00000000	         -0.21278600	          0.00000000	
          0.70650000	         54.83372000	        211.56995800	         -3.14983500	          0.32195500	          0.00600000	         -0.16479400	          0.00000000	         -0.58793700	          0.00000000	        -65.06035100	        492.95792600	          0.29535800	          0.83620200	          0.00600000	         -0.28260100	          0.00000000	         -0.21859800	          0.00000000	
          0.70700000	         54.41705900	        209.49408500	         -3.09658400	          0.32212900	          0.00600000	         -0.16478000	          0.00000000	         -0.58019600	          0.00000000	        -65.26141000	        494.48758100	          0.45866300	          0.83643600	          0.00600000	         -0.28266500	          0.00000000	         -0.22442200	          0.00000000	
          0.70750000	         53.99979900	        207.42521400	         -3.04386800	          0.32230300	          0.00600000	         -0.16476600	          0.00000000	         -0.57249400	          0.00000000	        -65.46064300	        496.01050000	          0.62171900	          0.83666900	          0.00600000	         -0.28272800	          0.00000000	         -0.23025700	          0.00000000	
          0.70800000	         53.58198400	        205.36344900	         -2.99168700	          0.32247900	          0.00600000	         -0.16475200	          0.00000000	         -0.56482900	          0.00000000	        -65.65804500	        497.52666400	          0.78450600	          0.83690300	          0.00600000	         -0.28279100	          0.00000000	         -0.23610200	          0.00000000	
          0.70850000	         53.16366000	        203.30889300	         -2.94003900	          0.32265700	          0.00600000	         -0.16473700	          0.00000000	         -0.55720200	          0.00000000	        -65.85361200	        499.03605600	          0.94700500	          0.83713600	          0.00600000	         -0.28285400	          0.00000000	         -0.24195600	          0.00000000	
          0.70900000	         52.74487200	        201.26164700	         -2.88892200	          0.32283500	          0.00600000	         -0.16472200	          0.00000000	         -0.54961400	          0.00000000	        -66.04733800	        500.53865500	          1.10919400	          0.83737000	          0.00600000	         -0.28291600	          0.00000000	         -0.24781700	          0.00000000	
          0.70950000	         52.32566600	        199.22181200	         -2.83833600	          0.32301500	          0.00600000	         -0.16470600	          0.00000000	         -0.54206400	          0.00000000	        -66.23921900	        502.03444600	          1.27105600	          0.83760300	          0.00600000	         -0.28297900	          0.00000000	         -0.25368600	          0.00000000	
          0.71000000	         51.90608700	        197.18948900	         -2.78827700	          0.32319600	          0.00600000	         -0.16469100	          0.00000000	         -0.53455300	          0.00000000	        -66.42925100	        503.52341100	          1.43257100	          0.83783600	          0.00600000	         -0.28304200	          0.00000000	         -0.25956000	          0.00000000	
          0.71050000	         51.48618100	        195.16477400	         -2.73874500	          0.32337800	          0.00600000	         -0.16467500	          0.00000000	         -0.52708100	          0.00000000	        -66.61742900	        505.00553200	          1.59371900	          0.83806900	          0.00600000	         -0.28310500	          0.00000000	         -0.26543800	          0.00000000	
          0.71100000	         51.06599500	        193.14776600	         -2.68973900	          0.32356100	          0.00600000	         -0.16465800	          0.00000000	         -0.51964800	          0.00000000	        -66.80374800	        506.48079400	          1.75448100	          0.83830100	          0.00600000	         -0.28316700	          0.00000000	         -0.27132000	          0.00000000	
          0.71150000	         50.64557200	        191.13855900	         -2.64125500	          0.32374600	          0.00600000	         -0.16464100	          0.00000000	         -0.51225400	          0.00000000	        -66.98820500	        507.94918000	          1.91484000	          0.83853400	          0.00600000	         -0.28323000	          0.00000000	         -0.27720400	          0.00000000	
          0.71200000	         50.22496000	        189.13724900	         -2.59329200	          0.32393300	          0.00600000	         -0.16462400	          0.00000000	         -0.50490100	          0.00000000	        -67.17079500	        509.41067400	          2.07477700	          0.83876600	          0.00600000	         -0.28329200	          0.00000000	         -0.28308900	          0.00000000	
          0.71250000	         49.80420300	        187.14392900	         -2.54584900	          0.32412000	          0.00600000	         -0.16460700	          0.00000000	         -0.49758700	          0.00000000	        -67.35151300	        510.86526000	          2.23427300	          0.83899800	          0.00600000	         -0.28335400	          0.00000000	         -0.28897400	          0.00000000	
          0.71300000	         49.38334800	        185.15869100	         -2.49892300	          0.32430900	          0.00600000	         -0.16458900	          0.00000000	         -0.49031300	          0.00000000	        -67.53035700	        512.31292400	          2.39331000	          0.83923100	          0.00600000	         -0.28341700	          0.00000000	         -0.29485700	          0.00000000	
          0.71350000	         48.96244000	        183.18162400	         -2.45251100	          0.32450000	          0.00600000	         -0.16457100	          0.00000000	         -0.48307900	          0.00000000	        -67.70732200	        513.75364900	          2.55187100	          0.83946200	          0.00600000	         -0.28347900	          0.00000000	         -0.30073800	          0.00000000	
